<svg version="1.1" id="Fnatic_Logo" xmlns="http://www.w3.org/2000/svg" x="0" y="0" viewBox="0 0 44.8 44.8">
  <path id="Bounding_box" fill="none" d="M0 0h44.8v44.8H0z"/><g id="Logo"><path class="st1" d="M21.5 12.1c-1.6 0-3.1.1-4.6.2-4 .3-7.9 1-11.8 2l3.4 3.9c2.6-.6 5.2-1 7.8-1.2-1.2 4.8-3.9 9-7.8 11.9v5.5c6.6-3.7 11.2-10.2 12.6-17.7.3-1.5.4-3.1.4-4.6zM39.7 14.3c-3.9-1-7.8-1.7-11.8-2-1.5-.1-3.1-.2-4.6-.2 0 1.6.1 3.1.4 4.6 1.4 7.5 6 13.9 12.6 17.7v-5.5c-3.9-2.9-6.6-7.1-7.8-11.9 2.6.2 5.2.7 7.8 1.2l3.4-3.9zM20.3 34.5l4.2-4.8v-5.1h-4.2z" fill="#FF5900" /></g>
</svg>