<svg version="1.1" id="Layer_1" xmlns="http://www.w3.org/2000/svg" x="0" y="0" viewBox="0 0 186.8 50.8" xml:space="preserve"><style>.st0{fill:none}.st1{fill:#ff5900}.st2,.st3{fill:#fff}.st3{fill-rule:evenodd;clip-rule:evenodd}</style><path class="st0" d="M6 2.8h44.8v44.8H6V2.8z"/><path id="Bounding_box" class="st0" d="M0 0h50.8v50.8H0z"/><g id="Logo"><path class="st1" d="M24.4 13.7c-1.8 0-3.5.1-5.2.2-4.6.3-9 1.2-13.4 2.2l3.8 4.5c3-.6 5.9-1.2 8.8-1.4C17 24.7 14 29.5 9.6 32.8v6.3C17 34.9 22.3 27.5 23.9 19c.4-1.7.5-3.5.5-5.3zM45.1 16.2c-4.5-1.2-8.8-1.9-13.4-2.2-1.7-.1-3.5-.2-5.2-.2 0 1.8.1 3.5.4 5.2 1.6 8.5 6.8 15.8 14.3 20.1v-6.3c-4.5-3.3-7.5-8.1-8.8-13.5 3 .2 5.9.7 8.8 1.4l3.9-4.5zM23 39.2l4.8-5.4v-5.9H23z"/></g>
<g><path class="st2" d="M50.8 14.5v23.9h5.9v-9.3h9.2v-5.2h-9.2v-4.4h12.6v-5H50.8zM89.2 20.1c.6.4.8 1.1.8 2.1v16.2h6v-18c0-2.2-.7-3.8-2.2-4.8-1.1-.7-2.4-1.1-4.1-1.1H73.1v23.9h6V19.5h7.7c1.1 0 1.9.2 2.4.6zM117 38.4h6V14.5h-17c-4 0-5.9 1.7-5.9 5.3v18.6h6v-6h11l-.1 6zm-11-11.5v-4.8c0-1.7.8-2.6 2.3-2.6h8.6v7.4H106zM148.1 14.5H128l-1.6 5h7.8v18.9h6V19.5h6l1.9-5zM150.9 14.5h6v23.9h-6V14.5z"/><path class="st3" d="M161.8 16.3c-.6.8-1 2-1 3.5v12.7c0 2 .7 3.5 2 4.5 1.2.9 2.6 1.4 4.3 1.4H180v-4.7h-11c-1 0-2.2-.4-2.2-2.6v-9.4c0-.6.2-1.1.6-1.5.4-.4.9-.6 1.6-.6h8.9l1.8-5h-12.5c-2.7-.1-4.5.5-5.4 1.7"/></g></svg>